<?xml version="1.0" encoding="utf-8"?>
<!-- Generator: Adobe Illustrator 16.0.3, SVG Export Plug-In . SVG Version: 6.00 Build 0)  -->
<!DOCTYPE svg PUBLIC "-//W3C//DTD SVG 1.1//EN" "http://www.w3.org/Graphics/SVG/1.1/DTD/svg11.dtd" [
	<!ENTITY ns_extend "http://ns.adobe.com/Extensibility/1.0/">
	<!ENTITY ns_ai "http://ns.adobe.com/AdobeIllustrator/10.0/">
	<!ENTITY ns_graphs "http://ns.adobe.com/Graphs/1.0/">
	<!ENTITY ns_vars "http://ns.adobe.com/Variables/1.0/">
	<!ENTITY ns_imrep "http://ns.adobe.com/ImageReplacement/1.0/">
	<!ENTITY ns_sfw "http://ns.adobe.com/SaveForWeb/1.0/">
	<!ENTITY ns_custom "http://ns.adobe.com/GenericCustomNamespace/1.0/">
	<!ENTITY ns_adobe_xpath "http://ns.adobe.com/XPath/1.0/">
]>
<svg version="1.1"
	 id="svg864" xmlns:x="&ns_extend;" xmlns:i="&ns_ai;" xmlns:graph="&ns_graphs;" xmlns:dc="http://purl.org/dc/elements/1.1/" xmlns:cc="http://creativecommons.org/ns#" xmlns:rdf="http://www.w3.org/1999/02/22-rdf-syntax-ns#" xmlns:svg="http://www.w3.org/2000/svg" xmlns:sodipodi="http://sodipodi.sourceforge.net/DTD/sodipodi-0.dtd" xmlns:inkscape="http://www.inkscape.org/namespaces/inkscape" sodipodi:docname="facebook.svg" inkscape:version="0.92.4 (5da689c313, 2019-01-14)"
	 xmlns="http://www.w3.org/2000/svg" xmlns:xlink="http://www.w3.org/1999/xlink" x="0px" y="0px" width="30px" height="30px"
	 viewBox="0 0 30 30" enable-background="new 0 0 30 30" xml:space="preserve">
<metadata  id="metadata861">
	<rdf:RDF>
		<cc:Work  rdf:about="">
			<dc:format>image/svg+xml</dc:format>
			<dc:type  rdf:resource="http://purl.org/dc/dcmitype/StillImage"></dc:type>
			<dc:title></dc:title>
		</cc:Work>
	</rdf:RDF>
	<sfw  xmlns="&ns_sfw;">
		<slices></slices>
		<sliceSourceBounds  height="29.477" width="29.476" x="496.762" y="370.023" bottomLeftOrigin="true"></sliceSourceBounds>
	</sfw>
</metadata>
<path fill="#603813" d="M0.262,24.533c0-6.514,0-13.028,0-19.542c0.087-0.38,0.14-0.771,0.266-1.137
	c0.638-1.86,1.894-3.09,3.791-3.643C4.625,0.122,4.941,0.069,5.253,0c6.498,0,12.997,0,19.495,0c0.327,0.074,0.66,0.128,0.979,0.225
	c1.937,0.589,3.2,1.856,3.789,3.79c0.092,0.304,0.148,0.619,0.223,0.929c0,6.53,0,13.06,0,19.589
	c-0.075,0.318-0.131,0.641-0.229,0.951c-0.586,1.906-1.841,3.16-3.739,3.76c-0.317,0.1-0.65,0.156-0.976,0.232
	c-6.528,0-13.059,0-19.589,0c-0.035-0.017-0.068-0.039-0.104-0.045c-0.763-0.099-1.479-0.337-2.136-0.738
	c-1.25-0.762-2.094-1.838-2.487-3.254C0.396,25.139,0.333,24.836,0.262,24.533z M24.088,9.092c0-1.151,0-2.271,0-3.406
	c-0.079-0.005-0.146-0.015-0.218-0.015c-1.043,0-2.085-0.016-3.129,0.006c-0.531,0.012-1.067,0.053-1.589,0.146
	c-0.855,0.152-1.606,0.521-2.164,1.218c-0.543,0.674-0.781,1.47-0.834,2.308c-0.061,0.93-0.045,1.865-0.062,2.799
	c-0.002,0.09-0.002,0.181-0.002,0.294c-0.611,0-1.188,0-1.785,0c0,0.107,0,0.192,0,0.277c0,0.896,0,1.79,0,2.684
	c0,0.469,0,0.469,0.472,0.469c0.43,0,0.859,0,1.315,0c0,3.418,0,6.803,0,10.194c1.546,0,3.063,0,4.608,0c0-3.396,0-6.78,0-10.194
	c0.109,0,0.195,0,0.277,0c0.754,0,1.508-0.004,2.26,0.004c0.17,0.002,0.234-0.047,0.25-0.219c0.063-0.671,0.145-1.341,0.215-2.012
	c0.043-0.395,0.084-0.791,0.128-1.221c-1.065,0-2.097,0-3.13,0c0-0.653-0.002-1.272,0.002-1.892c0-0.18,0.018-0.36,0.033-0.54
	c0.043-0.485,0.266-0.749,0.742-0.836c0.246-0.044,0.5-0.06,0.75-0.063C22.841,9.086,23.451,9.092,24.088,9.092z"/>
</svg>
