<?xml version="1.0" encoding="UTF-8" standalone="no"?>
<!-- Generator: Adobe Illustrator 16.0.3, SVG Export Plug-In . SVG Version: 6.00 Build 0)  -->

<svg
   xmlns:ns0="&amp;ns_sfw;"
   xmlns:dc="http://purl.org/dc/elements/1.1/"
   xmlns:cc="http://creativecommons.org/ns#"
   xmlns:rdf="http://www.w3.org/1999/02/22-rdf-syntax-ns#"
   xmlns:svg="http://www.w3.org/2000/svg"
   xmlns="http://www.w3.org/2000/svg"
   xmlns:sodipodi="http://sodipodi.sourceforge.net/DTD/sodipodi-0.dtd"
   xmlns:inkscape="http://www.inkscape.org/namespaces/inkscape"
   version="1.1"
   id="svg864"
   sodipodi:docname="login.svg"
   inkscape:version="0.92.4 (5da689c313, 2019-01-14)"
   x="0px"
   y="0px"
   width="40"
   height="40"
   viewBox="0 0 40 40"
   enable-background="new 0 0 30 30"
   xml:space="preserve"><defs
   id="defs3924" />
<metadata
   id="metadata861">
	<rdf:RDF>
		<cc:Work
   rdf:about="">
			<dc:format>image/svg+xml</dc:format>
			<dc:type
   rdf:resource="http://purl.org/dc/dcmitype/StillImage" />
			<dc:title></dc:title>
		</cc:Work>
	</rdf:RDF>
	<ns0:sfw>
		<ns0:slices />
		<ns0:sliceSourceBounds
   height="11.966"
   width="24.131"
   x="499.434"
   y="378.517"
   bottomLeftOrigin="true" />
	</ns0:sfw>
</metadata>
<sodipodi:namedview
   units="px"
   id="base"
   inkscape:cy="-7.1392495"
   inkscape:cx="75.289322"
   inkscape:zoom="5.6"
   borderopacity="1.0"
   showgrid="false"
   bordercolor="#666666"
   pagecolor="#ffffff"
   inkscape:window-maximized="1"
   inkscape:window-y="-8"
   inkscape:window-x="-8"
   inkscape:window-height="706"
   inkscape:window-width="1366"
   inkscape:current-layer="svg864"
   inkscape:document-units="mm"
   inkscape:pageshadow="2"
   inkscape:pageopacity="0.0">
	</sodipodi:namedview>
<g
   id="g3877"
   transform="matrix(3.5375125,0,0,3.4197784,-32.49867,-32.925819)">
	<path
   d="M 15.055,20.982 H 15.05 c -0.446,0 -0.89,-0.252 -1.317,-0.365 -0.114,-0.031 -0.182,-0.244 -0.151,-0.358 0.031,-0.113 0.147,-0.229 0.261,-0.199 0.392,0.104 0.798,0.132 1.208,0.132 0.118,0 0.215,0.277 0.215,0.396 0,0.119 -0.093,0.394 -0.211,0.394 z m 1.267,-0.555 c -0.095,0 -0.181,-0.063 -0.205,-0.157 -0.031,-0.115 0.036,-0.23 0.15,-0.262 0.395,-0.105 0.773,-0.264 1.128,-0.469 0.102,-0.059 0.231,-0.023 0.29,0.078 0.061,0.102 0.025,0.232 -0.076,0.291 -0.387,0.224 -0.801,0.396 -1.232,0.512 -0.019,0.005 -0.037,0.007 -0.055,0.007 z m -3.716,-0.486 c -0.036,0 -0.073,-0.01 -0.106,-0.029 -0.386,-0.222 -0.743,-0.494 -1.059,-0.811 -0.083,-0.082 -0.083,-0.217 0,-0.301 0.083,-0.084 0.217,-0.084 0.301,0 0.29,0.289 0.616,0.539 0.97,0.743 0.103,0.059 0.137,0.188 0.079,0.291 -0.04,0.069 -0.111,0.107 -0.185,0.107 z m 5.909,-0.784 c -0.055,0 -0.108,-0.021 -0.15,-0.062 -0.083,-0.084 -0.083,-0.219 -10e-4,-0.302 0.29,-0.29 0.541,-0.616 0.745,-0.97 0.059,-0.102 0.188,-0.137 0.291,-0.078 0.103,0.059 0.137,0.189 0.077,0.291 -0.223,0.386 -0.496,0.742 -0.811,1.059 -0.043,0.042 -0.097,0.062 -0.151,0.062 z m -7.702,-1.005 c -0.073,0 -0.145,-0.039 -0.184,-0.106 -0.225,-0.386 -0.397,-0.8 -0.513,-1.231 -0.031,-0.113 0.037,-0.23 0.15,-0.26 0.113,-0.031 0.23,0.036 0.261,0.15 0.105,0.394 0.264,0.773 0.469,1.127 0.059,0.102 0.025,0.232 -0.077,0.291 -0.034,0.02 -0.07,0.029 -0.106,0.029 z m 8.969,-1.189 c -0.019,0 -0.037,-0.002 -0.056,-0.008 -0.113,-0.029 -0.283,-0.146 -0.254,-0.26 0.105,-0.394 0.057,-0.801 0.057,-1.212 v -0.019 c 0,-0.118 0.157,-0.213 0.275,-0.214 0.115,-0.003 0.278,0.093 0.278,0.211 v 0.022 c 0,0.448 -0.02,0.892 -0.134,1.321 -0.024,0.096 -0.072,0.159 -0.166,0.159 z M 10.03,15.701 c -0.118,0 -0.337,-0.09 -0.337,-0.208 v -0.01 c 0,-0.445 0.18,-0.886 0.294,-1.312 0.03,-0.114 0.208,-0.182 0.322,-0.151 0.113,0.03 0.212,0.146 0.182,0.26 -0.103,0.39 -0.203,0.794 -0.203,1.203 0,0.118 -0.142,0.218 -0.258,0.218 z m 9.747,-1.291 c -0.094,0 -0.18,-0.063 -0.206,-0.157 -0.106,-0.394 -0.266,-0.773 -0.472,-1.127 -0.06,-0.102 -0.025,-0.231 0.076,-0.291 0.102,-0.06 0.232,-0.025 0.291,0.076 0.225,0.386 0.399,0.8 0.516,1.23 0.031,0.113 -0.036,0.23 -0.149,0.261 -0.02,0.006 -0.038,0.008 -0.056,0.008 z m -8.975,-1.153 c -0.036,0 -0.072,-0.009 -0.106,-0.028 -0.102,-0.059 -0.137,-0.188 -0.079,-0.291 0.223,-0.386 0.495,-0.743 0.81,-1.06 0.083,-0.083 0.218,-0.083 0.302,0 0.083,0.083 0.083,0.218 0,0.301 -0.289,0.291 -0.539,0.618 -0.743,0.971 -0.038,0.069 -0.11,0.107 -0.184,0.107 z m 7.699,-1.036 c -0.055,0 -0.108,-0.021 -0.149,-0.062 -0.291,-0.288 -0.618,-0.538 -0.973,-0.742 -0.102,-0.058 -0.137,-0.188 -0.078,-0.291 0.058,-0.102 0.188,-0.137 0.291,-0.079 0.387,0.222 0.742,0.494 1.059,0.809 0.084,0.083 0.084,0.218 0.002,0.301 -0.043,0.043 -0.097,0.064 -0.152,0.064 z m -5.911,-0.76 c -0.073,0 -0.145,-0.038 -0.184,-0.106 -0.06,-0.102 -0.025,-0.232 0.076,-0.292 0.386,-0.225 0.801,-0.398 1.23,-0.514 0.114,-0.03 0.231,0.037 0.262,0.15 0.031,0.114 -0.037,0.231 -0.15,0.262 -0.394,0.106 -0.773,0.265 -1.127,0.471 -0.034,0.019 -0.071,0.029 -0.107,0.029 z m 3.713,-0.501 c -0.018,0 -0.036,-0.036 -0.055,-0.041 -0.389,-0.103 -0.792,-0.188 -1.198,-0.188 h -0.015 c -0.118,0 -0.213,-0.09 -0.213,-0.208 0,-0.118 0.095,-0.208 0.213,-0.208 h 0.015 c 0.443,0 0.882,0.085 1.307,0.198 0.113,0.03 0.182,0.161 0.151,0.274 -0.025,0.096 -0.111,0.173 -0.205,0.173 z"
   id="path3875"
   inkscape:connector-curvature="0"
   style="fill:#c69c6d" />
</g>


<g
   id="g3921"
   transform="matrix(5.8545207,0,0,5.8730214,-89.164723,-48.873409)">
	<path
   d="m 19.544,11.904 c 0,0.517 -0.419,0.937 -0.937,0.937 -0.518,0 -0.938,-0.42 -0.938,-0.937 0,-0.517 0.42,-0.937 0.938,-0.937 0.518,0 0.937,0.42 0.937,0.937 z"
   id="path3899"
   inkscape:connector-curvature="0"
   style="fill:#ffffff" />
	<path
   d="m 20.932,12.672 c -0.089,-0.71 -1.064,-0.522 -1.495,-0.484 -0.043,0.004 -0.329,-0.009 -0.338,0.024 -0.024,-0.014 -0.05,-0.027 -0.077,-0.041 0.004,-0.02 0.004,-0.042 -0.012,-0.063 -0.106,-0.153 -0.227,-0.188 -0.326,-0.15 -0.007,-0.011 -0.015,-0.019 -0.02,-0.029 -0.012,-0.022 -0.027,-0.035 -0.046,-0.044 -0.009,-0.023 -0.022,-0.052 -0.046,-0.053 -0.529,-0.031 -0.638,-1.349 -1.158,-1.527 -0.01,-0.003 -0.021,-0.003 -0.031,-0.006 -0.014,-0.004 -0.027,-0.007 -0.041,-0.009 -0.273,-0.05 -0.629,0.099 -0.627,0.411 0.005,0.485 0.363,0.781 0.769,0.979 0.204,0.1 0.417,0.179 0.628,0.264 0.002,0.014 0.005,0.027 0.014,0.042 0.043,0.055 0.078,0.117 0.112,0.178 0.017,0.033 0.069,0.049 0.103,0.035 0.018,-0.008 0.032,-0.017 0.047,-0.025 -0.011,0.023 -0.021,0.049 -0.029,0.08 -0.018,0.061 0.049,0.118 0.107,0.103 0,0.018 0,0.036 0.002,0.055 0.007,0.056 0.062,0.1 0.117,0.079 0.086,-0.031 0.137,-0.077 0.162,-0.127 0.119,0.049 0.604,0.358 0.689,0.445 0.318,0.324 1.035,0.505 1.348,0.218 0.003,0.001 0.008,0.002 0.011,0.003 0.054,0.009 0.113,-0.035 0.106,-0.094 -0.003,-0.021 -0.01,-0.038 -0.015,-0.057 0.041,-0.095 0.063,-0.059 0.046,-0.207 z"
   id="path3901"
   inkscape:connector-curvature="0"
   style="fill:#ffffff" />
	<g
   id="g3919">
		<path
   d="m 19.022,10.77 c -0.883,0 -0.787,1.329 0.087,1.329 0.883,0 0.787,-1.329 -0.087,-1.329 z"
   id="path3903"
   inkscape:connector-curvature="0"
   style="fill:#c69c6d" />
		<path
   d="m 18.715,12.782 c -0.285,0.393 -0.693,0.588 -0.912,0.437 -0.219,-0.15 -0.166,-0.591 0.119,-0.983 0.284,-0.393 0.692,-0.588 0.911,-0.438 0.219,0.15 0.165,0.592 -0.118,0.984 z"
   id="path3905"
   inkscape:connector-curvature="0"
   style="fill:#c69c6d" />
		<path
   d="M 18.223,11.518 C 18.1,11.062 17.589,9.825 16.928,10.33 c -0.762,0.58 0.368,1.408 0.947,1.513 0.066,0.013 0.086,-0.088 0.02,-0.101 -0.547,-0.1 -1.62,-0.888 -0.822,-1.387 0.517,-0.324 0.965,0.876 1.052,1.198 0.005,0.02 0.019,0.029 0.032,0.032 0.008,0.016 0.024,0.028 0.047,0.028 0.058,0.001 0.06,-0.072 0.019,-0.095 z"
   id="path3907"
   inkscape:connector-curvature="0"
   style="fill:#c69c6d" />
		<path
   d="m 18.086,11.738 c -0.188,-0.21 -0.375,-0.42 -0.551,-0.64 -0.041,-0.052 -0.129,0.005 -0.088,0.058 0.177,0.219 0.363,0.43 0.552,0.639 0.044,0.05 0.132,-0.007 0.087,-0.057 z"
   id="path3909"
   inkscape:connector-curvature="0"
   style="fill:#c69c6d" />
		<path
   d="M 19.295,10.06 C 19.213,9.978 18.958,9.841 18.868,9.984 c -0.057,0.09 -10e-4,0.222 0.079,0.28 0.117,0.086 0.219,-0.018 0.274,-0.118 0.032,0.029 0.056,0.055 0.063,0.065 0.099,0.152 0.039,0.382 0.019,0.549 -0.008,0.065 0.096,0.085 0.104,0.02 0.03,-0.249 0.085,-0.523 -0.112,-0.72 z m -0.299,0.11 c -0.031,-0.027 -0.064,-0.102 -0.033,-0.139 0.033,-0.039 0.107,-0.003 0.177,0.047 -0.028,0.061 -0.077,0.151 -0.144,0.092 z"
   id="path3911"
   inkscape:connector-curvature="0"
   style="fill:#c69c6d" />
		<path
   d="m 19.313,12.153 c 0.475,-0.089 1.84,-0.176 1.659,0.624 -0.206,0.92 -1.461,0.286 -1.81,-0.177 -0.039,-0.053 0.045,-0.114 0.084,-0.061 0.33,0.438 1.523,1.04 1.64,0.123 0.075,-0.595 -1.228,-0.469 -1.563,-0.406 -0.02,0.004 -0.034,-0.003 -0.043,-0.014 -0.019,-0.001 -0.037,-0.009 -0.047,-0.029 -0.025,-0.052 0.04,-0.086 0.08,-0.06 z"
   id="path3913"
   inkscape:connector-curvature="0"
   style="fill:#c69c6d" />
		<path
   d="m 19.168,12.369 c 0.275,0.074 0.551,0.147 0.83,0.207 0.065,0.014 0.051,0.115 -0.016,0.101 -0.279,-0.06 -0.555,-0.133 -0.83,-0.207 -0.064,-0.017 -0.049,-0.118 0.016,-0.101 z"
   id="path3915"
   inkscape:connector-curvature="0"
   style="fill:#c69c6d" />
		<path
   d="m 19.637,10.963 c -0.057,0.036 0.006,0.118 0.063,0.083 0.146,-0.09 0.332,-0.242 0.516,-0.222 0.013,10e-4 0.047,0.011 0.088,0.026 -0.068,0.093 -0.121,0.227 0.009,0.293 0.089,0.045 0.233,0.037 0.293,-0.052 0.093,-0.141 -0.144,-0.306 -0.255,-0.342 -0.269,-0.086 -0.497,0.081 -0.714,0.214 z M 20.4,10.894 c 0.076,0.039 0.142,0.089 0.119,0.135 -0.02,0.043 -0.104,0.047 -0.143,0.031 -0.083,-0.033 -0.021,-0.116 0.024,-0.166 z"
   id="path3917"
   inkscape:connector-curvature="0"
   style="fill:#c69c6d" />
	</g>
</g>
</svg>