<?xml version="1.0" encoding="UTF-8" standalone="no"?>
<!-- Generator: Adobe Illustrator 16.0.3, SVG Export Plug-In . SVG Version: 6.00 Build 0)  -->

<svg
   xmlns:ns="&amp;ns_sfw;"
   xmlns:dc="http://purl.org/dc/elements/1.1/"
   xmlns:cc="http://creativecommons.org/ns#"
   xmlns:rdf="http://www.w3.org/1999/02/22-rdf-syntax-ns#"
   xmlns:svg="http://www.w3.org/2000/svg"
   xmlns="http://www.w3.org/2000/svg"
   xmlns:sodipodi="http://sodipodi.sourceforge.net/DTD/sodipodi-0.dtd"
   xmlns:inkscape="http://www.inkscape.org/namespaces/inkscape"
   version="1.1"
   id="svg864"
   inkscape:version="0.92.2 (5c3e80d, 2017-08-06)"
   sodipodi:docname="logo_titulo.svg"
   x="0px"
   y="0px"
   width="175.5px"
   height="175.5px"
   viewBox="0 0 175.5 175.5"
   enable-background="new 0 0 175.5 175.5"
   xml:space="preserve"><defs
     id="defs3962" /><metadata
     id="metadata861"><rdf:RDF><cc:Work
         rdf:about=""><dc:format>image/svg+xml</dc:format><dc:type
           rdf:resource="http://purl.org/dc/dcmitype/StillImage" /><dc:title /></cc:Work></rdf:RDF><ns:sfw><ns:slices /><ns:sliceSourceBounds
         height="86.373"
         width="174.191"
         y="295"
         x="472.214"
         bottomLeftOrigin="true" /></ns:sfw></metadata><sodipodi:namedview
     units="px"
     id="base"
     inkscape:window-y="-8"
     inkscape:window-x="-8"
     inkscape:window-height="706"
     inkscape:window-width="1366"
     inkscape:current-layer="g3959"
     inkscape:document-units="mm"
     inkscape:pageshadow="2"
     inkscape:pageopacity="0.0"
     inkscape:window-maximized="1"
     inkscape:cy="95.757161"
     inkscape:cx="-128.14197"
     inkscape:zoom="0.98994949"
     borderopacity="1.0"
     bordercolor="#666666"
     showgrid="false"
     pagecolor="#ffffff" /><g
     id="g3915"
     transform="matrix(2.0505586,0,0,2.0505586,-91.398602,-95.600837)"><path
       d="m 88.208,129.5 h -0.034 c -3.223,0 -6.423,-1.82 -9.506,-2.643 -0.823,-0.217 -1.312,-1.762 -1.094,-2.584 0.221,-0.818 1.062,-1.658 1.883,-1.438 2.828,0.748 5.76,0.957 8.717,0.957 0.847,0 1.551,2.002 1.551,2.853 0,0.847 -0.669,2.855 -1.517,2.855 z m 9.144,-4.012 c -0.681,0 -1.3,-0.454 -1.482,-1.14 -0.223,-0.822 0.265,-1.664 1.086,-1.886 2.847,-0.76 5.588,-1.9 8.145,-3.38 0.735,-0.428 1.674,-0.176 2.098,0.558 0.43,0.735 0.176,1.677 -0.558,2.1 -2.79,1.617 -5.78,2.86 -8.891,3.695 -0.135,0.037 -0.268,0.053 -0.398,0.053 z m -26.82,-3.504 c -0.259,0 -0.524,-0.067 -0.766,-0.208 -2.787,-1.603 -5.358,-3.575 -7.64,-5.852 -0.6,-0.599 -0.604,-1.573 -10e-4,-2.176 0.596,-0.603 1.569,-0.603 2.171,-0.003 2.092,2.09 4.448,3.896 7.003,5.37 0.737,0.422 0.988,1.362 0.567,2.099 -0.286,0.494 -0.803,0.77 -1.334,0.77 z m 42.648,-5.661 c -0.393,0 -0.786,-0.148 -1.085,-0.446 -0.603,-0.601 -0.603,-1.576 -0.003,-2.176 2.089,-2.089 3.898,-4.446 5.375,-7.001 0.424,-0.735 1.364,-0.985 2.101,-0.561 0.736,0.426 0.985,1.365 0.56,2.099 -1.609,2.786 -3.581,5.354 -5.861,7.639 -0.301,0.298 -0.692,0.446 -1.087,0.446 z m -55.597,-7.255 c -0.53,0 -1.048,-0.276 -1.33,-0.766 -1.62,-2.787 -2.865,-5.779 -3.704,-8.885 -0.221,-0.82 0.265,-1.665 1.087,-1.885 0.818,-0.222 1.661,0.267 1.884,1.085 0.764,2.845 1.906,5.586 3.389,8.142 0.427,0.733 0.178,1.672 -0.556,2.1 -0.243,0.144 -0.507,0.209 -0.77,0.209 z m 64.747,-8.583 c -0.131,0 -0.267,-0.02 -0.398,-0.053 -0.821,-0.219 -2.047,-1.061 -1.832,-1.879 0.758,-2.843 0.4,-5.784 0.4,-8.749 v -0.133 c 0,-0.853 1.139,-1.542 1.992,-1.548 0.834,-0.026 2.008,0.674 2.008,1.522 v 0.158 c 0,3.231 -0.139,6.44 -0.968,9.538 -0.184,0.687 -0.524,1.144 -1.202,1.144 z M 51.932,91.373 c -0.852,0 -2.432,-0.648 -2.432,-1.499 v -0.069 c 0,-3.212 1.303,-6.399 2.121,-9.472 0.217,-0.821 1.504,-1.311 2.325,-1.091 0.817,0.218 1.531,1.059 1.314,1.88 -0.745,2.813 -1.462,5.735 -1.462,8.683 10e-4,0.846 -1.023,1.568 -1.866,1.568 z m 70.361,-9.315 c -0.679,0 -1.3,-0.451 -1.485,-1.138 -0.771,-2.844 -1.92,-5.581 -3.407,-8.135 -0.429,-0.733 -0.182,-1.673 0.552,-2.099 0.732,-0.433 1.674,-0.184 2.102,0.55 1.625,2.788 2.88,5.774 3.722,8.881 0.221,0.817 -0.263,1.66 -1.081,1.886 -0.139,0.035 -0.272,0.055 -0.403,0.055 z M 57.508,73.732 c -0.26,0 -0.522,-0.064 -0.765,-0.203 -0.735,-0.423 -0.987,-1.364 -0.565,-2.098 1.605,-2.789 3.573,-5.363 5.844,-7.648 0.601,-0.601 1.572,-0.604 2.176,-0.005 0.604,0.598 0.604,1.573 0.005,2.173 -2.085,2.099 -3.889,4.455 -5.361,7.01 -0.283,0.497 -0.801,0.771 -1.334,0.771 z m 55.574,-7.476 c -0.395,0 -0.783,-0.149 -1.084,-0.448 -2.098,-2.081 -4.456,-3.882 -7.016,-5.353 -0.736,-0.422 -0.991,-1.362 -0.568,-2.097 0.421,-0.736 1.362,-0.993 2.1,-0.567 2.791,1.601 5.36,3.564 7.646,5.837 0.604,0.599 0.608,1.569 0.01,2.174 -0.298,0.302 -0.694,0.454 -1.088,0.454 z m -42.67,-5.49 c -0.527,0 -1.044,-0.272 -1.326,-0.764 -0.429,-0.733 -0.181,-1.673 0.552,-2.102 2.786,-1.623 5.778,-2.872 8.881,-3.711 0.821,-0.221 1.666,0.264 1.888,1.082 0.222,0.82 -0.266,1.665 -1.084,1.886 -2.845,0.767 -5.582,1.914 -8.137,3.4 -0.244,0.141 -0.512,0.209 -0.774,0.209 z m 26.803,-3.61 c -0.131,0 -0.263,-0.259 -0.395,-0.297 C 94.013,56.12 91.103,55.5 88.174,55.5 h -0.109 c -0.85,0 -1.537,-0.652 -1.537,-1.5 0,-0.849 0.688,-1.5 1.537,-1.5 h 0.109 c 3.194,0 6.367,0.617 9.429,1.426 0.825,0.216 1.313,1.16 1.098,1.979 -0.183,0.692 -0.805,1.251 -1.486,1.251 z"
       id="path3913"
       inkscape:connector-curvature="0"
       style="fill:#c69c6d" /></g><g
     id="g3959"
     transform="matrix(3.9831825,0,0,3.9831825,-366.85698,-164.42944)"><path
       d="m 120.612,63.965 c 0,3.731 -3.028,6.763 -6.761,6.763 -3.736,0 -6.763,-3.031 -6.763,-6.763 0,-3.732 3.026,-6.76 6.763,-6.76 3.733,0 6.761,3.027 6.761,6.76 z"
       id="path3937"
       inkscape:connector-curvature="0"
       style="fill:#ffffff" /><path
       d="m 130.625,69.512 c -0.64,-5.125 -7.684,-3.767 -10.79,-3.493 -0.312,0.028 -2.379,-0.063 -2.441,0.173 -0.179,-0.103 -0.362,-0.196 -0.551,-0.293 0.029,-0.144 0.023,-0.299 -0.089,-0.452 -0.767,-1.103 -1.633,-1.354 -2.359,-1.085 -0.044,-0.076 -0.101,-0.133 -0.141,-0.211 -0.077,-0.158 -0.194,-0.255 -0.327,-0.316 -0.058,-0.166 -0.163,-0.373 -0.328,-0.382 -3.824,-0.226 -4.607,-9.737 -8.364,-11.019 -0.073,-0.022 -0.15,-0.027 -0.224,-0.047 -0.1,-0.029 -0.198,-0.052 -0.302,-0.065 -1.97,-0.36 -4.537,0.716 -4.516,2.967 0.029,3.503 2.613,5.637 5.543,7.064 1.478,0.722 3.014,1.295 4.536,1.906 0.007,0.097 0.033,0.193 0.097,0.298 0.313,0.396 0.564,0.842 0.81,1.286 0.121,0.236 0.496,0.354 0.737,0.251 0.131,-0.056 0.234,-0.12 0.345,-0.185 -0.081,0.17 -0.152,0.357 -0.217,0.578 -0.123,0.438 0.354,0.846 0.772,0.739 0.003,0.129 0.008,0.259 0.023,0.394 0.044,0.401 0.438,0.719 0.847,0.569 0.616,-0.225 0.979,-0.558 1.159,-0.92 0.861,0.351 4.361,2.581 4.985,3.213 2.297,2.341 7.465,3.648 9.721,1.577 0.026,0.006 0.056,0.012 0.081,0.018 0.393,0.068 0.818,-0.251 0.766,-0.674 -0.017,-0.15 -0.066,-0.275 -0.102,-0.413 0.296,-0.675 0.463,-0.414 0.329,-1.478 z"
       id="path3939"
       inkscape:connector-curvature="0"
       style="fill:#ffffff" /><g
       id="g3957"
       transform="matrix(0.78534219,0,0,0.81369854,23.989327,12.677488)"><path
         d="m 116.846,55.781 c -6.374,0 -5.682,9.591 0.628,9.591 6.376,0 5.683,-9.591 -0.628,-9.591 z"
         id="path3941"
         inkscape:connector-curvature="0"
         style="fill:#c69c6d" /><path
         d="m 114.623,70.307 c -2.054,2.832 -5,4.244 -6.579,3.154 -1.581,-1.087 -1.197,-4.267 0.852,-7.098 2.055,-2.835 5.002,-4.248 6.581,-3.16 1.581,1.091 1.198,4.271 -0.854,7.104 z"
         id="path3943"
         inkscape:connector-curvature="0"
         style="fill:#c69c6d" /><path
         d="m 111.074,61.182 c -0.887,-3.293 -4.576,-12.221 -9.35,-8.58 -5.497,4.188 2.658,10.163 6.838,10.924 0.482,0.088 0.625,-0.639 0.144,-0.726 -3.953,-0.72 -11.696,-6.411 -5.943,-10.015 3.735,-2.338 6.974,6.327 7.596,8.646 0.038,0.14 0.132,0.209 0.234,0.233 0.06,0.112 0.174,0.205 0.337,0.205 0.419,10e-4 0.44,-0.525 0.144,-0.687 z"
         id="path3945"
         inkscape:connector-curvature="0"
         style="fill:#c69c6d" /><path
         d="m 110.086,62.771 c -1.359,-1.515 -2.708,-3.034 -3.98,-4.618 -0.297,-0.373 -0.928,0.037 -0.628,0.414 1.272,1.584 2.62,3.104 3.98,4.616 0.316,0.354 0.949,-0.054 0.628,-0.412 z"
         id="path3947"
         inkscape:connector-curvature="0"
         style="fill:#c69c6d" /><path
         d="m 118.813,50.652 c -0.592,-0.59 -2.431,-1.579 -3.082,-0.545 -0.408,0.652 -0.007,1.598 0.572,2.02 0.847,0.619 1.58,-0.133 1.981,-0.855 0.229,0.21 0.4,0.395 0.452,0.469 0.713,1.102 0.279,2.761 0.135,3.962 -0.058,0.469 0.685,0.614 0.743,0.142 0.22,-1.792 0.618,-3.765 -0.801,-5.193 z m -2.159,0.799 c -0.226,-0.197 -0.469,-0.736 -0.242,-1.002 0.242,-0.283 0.782,-0.023 1.279,0.337 -0.197,0.439 -0.549,1.089 -1.037,0.665 z"
         id="path3949"
         inkscape:connector-curvature="0"
         style="fill:#c69c6d" /><path
         d="m 118.935,65.767 c 3.429,-0.646 13.28,-1.271 11.982,4.499 -1.492,6.646 -10.546,2.067 -13.059,-1.277 -0.292,-0.386 0.316,-0.826 0.606,-0.442 2.379,3.163 10.993,7.505 11.832,0.884 0.544,-4.294 -8.866,-3.385 -11.283,-2.927 -0.146,0.026 -0.249,-0.024 -0.316,-0.104 -0.131,-0.005 -0.263,-0.064 -0.338,-0.21 -0.176,-0.368 0.297,-0.614 0.576,-0.423 z"
         id="path3951"
         inkscape:connector-curvature="0"
         style="fill:#c69c6d" /><path
         d="m 117.896,67.323 c 1.985,0.536 3.974,1.063 5.993,1.496 0.471,0.102 0.365,0.833 -0.11,0.728 -2.017,-0.428 -4.005,-0.956 -5.991,-1.493 -0.468,-0.126 -0.364,-0.858 0.108,-0.731 z"
         id="path3953"
         inkscape:connector-curvature="0"
         style="fill:#c69c6d" /><path
         d="m 121.281,57.178 c -0.412,0.255 0.044,0.846 0.453,0.593 1.048,-0.648 2.394,-1.748 3.722,-1.6 0.089,0.012 0.333,0.083 0.628,0.193 -0.495,0.671 -0.874,1.636 0.068,2.114 0.642,0.324 1.689,0.267 2.114,-0.374 0.672,-1.02 -1.036,-2.207 -1.837,-2.468 -1.934,-0.632 -3.586,0.575 -5.148,1.542 z m 5.508,-0.503 c 0.551,0.284 1.023,0.646 0.864,0.979 -0.146,0.313 -0.75,0.337 -1.029,0.223 -0.602,-0.243 -0.153,-0.838 0.165,-1.202 z"
         id="path3955"
         inkscape:connector-curvature="0"
         style="fill:#c69c6d" /></g></g></svg>