<?xml version="1.0" encoding="utf-8"?>
<!-- Generator: Adobe Illustrator 16.0.3, SVG Export Plug-In . SVG Version: 6.00 Build 0)  -->
<!DOCTYPE svg PUBLIC "-//W3C//DTD SVG 1.1//EN" "http://www.w3.org/Graphics/SVG/1.1/DTD/svg11.dtd" [
	<!ENTITY ns_extend "http://ns.adobe.com/Extensibility/1.0/">
	<!ENTITY ns_ai "http://ns.adobe.com/AdobeIllustrator/10.0/">
	<!ENTITY ns_graphs "http://ns.adobe.com/Graphs/1.0/">
	<!ENTITY ns_vars "http://ns.adobe.com/Variables/1.0/">
	<!ENTITY ns_imrep "http://ns.adobe.com/ImageReplacement/1.0/">
	<!ENTITY ns_sfw "http://ns.adobe.com/SaveForWeb/1.0/">
	<!ENTITY ns_custom "http://ns.adobe.com/GenericCustomNamespace/1.0/">
	<!ENTITY ns_adobe_xpath "http://ns.adobe.com/XPath/1.0/">
]>
<svg version="1.1"
	 id="svg864" xmlns:x="&ns_extend;" xmlns:i="&ns_ai;" xmlns:graph="&ns_graphs;" inkscape:version="0.92.4 (5da689c313, 2019-01-14)" sodipodi:docname="logo.svg" xmlns:dc="http://purl.org/dc/elements/1.1/" xmlns:cc="http://creativecommons.org/ns#" xmlns:rdf="http://www.w3.org/1999/02/22-rdf-syntax-ns#" xmlns:svg="http://www.w3.org/2000/svg" xmlns:inkscape="http://www.inkscape.org/namespaces/inkscape" xmlns:sodipodi="http://sodipodi.sourceforge.net/DTD/sodipodi-0.dtd"
	 xmlns="http://www.w3.org/2000/svg" xmlns:xlink="http://www.w3.org/1999/xlink" x="0px" y="0px" width="175.5px" height="175.5px"
	 viewBox="0 0 175.5 175.5" enable-background="new 0 0 175.5 175.5" xml:space="preserve">
<metadata  id="metadata861">
	<rdf:RDF>
		<cc:Work  rdf:about="">
			<dc:format>image/svg+xml</dc:format>
			<dc:type  rdf:resource="http://purl.org/dc/dcmitype/StillImage"></dc:type>
			<dc:title></dc:title>
		</cc:Work>
	</rdf:RDF>
	<sfw  xmlns="&ns_sfw;">
		<slices></slices>
		<sliceSourceBounds  height="86.373" width="174.191" y="295" x="472.214" bottomLeftOrigin="true"></sliceSourceBounds>
	</sfw>
</metadata>
<sodipodi:namedview  units="px" id="base" inkscape:window-y="-8" inkscape:window-x="-8" inkscape:window-height="705" inkscape:window-width="1366" inkscape:current-layer="layer1" inkscape:document-units="mm" inkscape:pageshadow="2" inkscape:pageopacity="0.0" inkscape:window-maximized="1" inkscape:cy="4.5090447" inkscape:cx="82.039657" inkscape:zoom="2.8" borderopacity="1.0" bordercolor="#666666" showgrid="false" pagecolor="#ffffff">
	</sodipodi:namedview>
<g>
	<path fill="#C69C6D" d="M88.208,129.5h-0.034c-3.223,0-6.423-1.82-9.506-2.643c-0.823-0.217-1.312-1.762-1.094-2.584
		c0.221-0.818,1.062-1.658,1.883-1.438c2.828,0.748,5.76,0.957,8.717,0.957c0.847,0,1.551,2.002,1.551,2.853
		C89.725,127.492,89.056,129.5,88.208,129.5z M97.352,125.488c-0.681,0-1.3-0.454-1.482-1.14c-0.223-0.822,0.265-1.664,1.086-1.886
		c2.847-0.76,5.588-1.9,8.145-3.38c0.735-0.428,1.674-0.176,2.098,0.558c0.43,0.735,0.176,1.677-0.558,2.1
		c-2.79,1.617-5.78,2.86-8.891,3.695C97.615,125.472,97.482,125.488,97.352,125.488z M70.532,121.984
		c-0.259,0-0.524-0.067-0.766-0.208c-2.787-1.603-5.358-3.575-7.64-5.852c-0.6-0.599-0.604-1.573-0.001-2.176
		c0.596-0.603,1.569-0.603,2.171-0.003c2.092,2.09,4.448,3.896,7.003,5.37c0.737,0.422,0.988,1.362,0.567,2.099
		C71.58,121.708,71.063,121.984,70.532,121.984z M113.18,116.323c-0.393,0-0.786-0.148-1.085-0.446
		c-0.603-0.601-0.603-1.576-0.003-2.176c2.089-2.089,3.898-4.446,5.375-7.001c0.424-0.735,1.364-0.985,2.101-0.561
		c0.736,0.426,0.985,1.365,0.56,2.099c-1.609,2.786-3.581,5.354-5.861,7.639C113.966,116.175,113.575,116.323,113.18,116.323z
		 M57.583,109.068c-0.53,0-1.048-0.276-1.33-0.766c-1.62-2.787-2.865-5.779-3.704-8.885c-0.221-0.82,0.265-1.665,1.087-1.885
		c0.818-0.222,1.661,0.267,1.884,1.085c0.764,2.845,1.906,5.586,3.389,8.142c0.427,0.733,0.178,1.672-0.556,2.1
		C58.11,109.003,57.846,109.068,57.583,109.068z M122.33,100.485c-0.131,0-0.267-0.02-0.398-0.053
		c-0.821-0.219-2.047-1.061-1.832-1.879c0.758-2.843,0.4-5.784,0.4-8.749v-0.133c0-0.853,1.139-1.542,1.992-1.548
		c0.834-0.026,2.008,0.674,2.008,1.522v0.158c0,3.231-0.139,6.44-0.968,9.538C123.348,100.028,123.008,100.485,122.33,100.485z
		 M51.932,91.373c-0.852,0-2.432-0.648-2.432-1.499v-0.069c0-3.212,1.303-6.399,2.121-9.472c0.217-0.821,1.504-1.311,2.325-1.091
		c0.817,0.218,1.531,1.059,1.314,1.88c-0.745,2.813-1.462,5.735-1.462,8.683C53.799,90.651,52.775,91.373,51.932,91.373z
		 M122.293,82.058c-0.679,0-1.3-0.451-1.485-1.138c-0.771-2.844-1.92-5.581-3.407-8.135c-0.429-0.733-0.182-1.673,0.552-2.099
		c0.732-0.433,1.674-0.184,2.102,0.55c1.625,2.788,2.88,5.774,3.722,8.881c0.221,0.817-0.263,1.66-1.081,1.886
		C122.557,82.038,122.424,82.058,122.293,82.058z M57.508,73.732c-0.26,0-0.522-0.064-0.765-0.203
		c-0.735-0.423-0.987-1.364-0.565-2.098c1.605-2.789,3.573-5.363,5.844-7.648c0.601-0.601,1.572-0.604,2.176-0.005
		c0.604,0.598,0.604,1.573,0.005,2.173c-2.085,2.099-3.889,4.455-5.361,7.01C58.559,73.458,58.041,73.732,57.508,73.732z
		 M113.082,66.256c-0.395,0-0.783-0.149-1.084-0.448c-2.098-2.081-4.456-3.882-7.016-5.353c-0.736-0.422-0.991-1.362-0.568-2.097
		c0.421-0.736,1.362-0.993,2.1-0.567c2.791,1.601,5.36,3.564,7.646,5.837c0.604,0.599,0.608,1.569,0.01,2.174
		C113.872,66.104,113.476,66.256,113.082,66.256z M70.412,60.766c-0.527,0-1.044-0.272-1.326-0.764
		c-0.429-0.733-0.181-1.673,0.552-2.102c2.786-1.623,5.778-2.872,8.881-3.711c0.821-0.221,1.666,0.264,1.888,1.082
		c0.222,0.82-0.266,1.665-1.084,1.886c-2.845,0.767-5.582,1.914-8.137,3.4C70.942,60.698,70.674,60.766,70.412,60.766z
		 M97.215,57.156c-0.131,0-0.263-0.259-0.395-0.297c-2.807-0.739-5.717-1.359-8.646-1.359h-0.109c-0.85,0-1.537-0.652-1.537-1.5
		c0-0.849,0.688-1.5,1.537-1.5h0.109c3.194,0,6.367,0.617,9.429,1.426c0.825,0.216,1.313,1.16,1.098,1.979
		C98.518,56.597,97.896,57.156,97.215,57.156z"/>
</g>
<g>
	<path fill="#603813" d="M19.467,56.362c0.143-1.076,0.344-2.034,0.595-2.875c0.257-0.843,0.573-1.585,0.953-2.228
		c0.38-0.643,0.707-1.143,0.99-1.508c0.276-0.359,0.66-0.811,1.155-1.349c-1.907,0.684-3.701,1.681-5.394,2.981
		c-1.693,1.301-3.084,2.68-4.17,4.117c-1.09,1.437-1.93,2.872-2.515,4.293c-0.585,1.425-0.829,2.648-0.717,3.675
		c0.197,1.899,1.16,2.531,2.885,1.94c0.328-0.114,0.742-0.327,1.237-0.638c0.496-0.309,0.775-0.476,0.836-0.496
		c0.431-0.141,0.67,0.006,0.726,0.44c0.047,0.438-0.1,1.069-0.455,1.895c-0.353,0.827-0.849,1.7-1.493,2.625
		c-0.646,0.927-1.499,1.824-2.565,2.698c-1.066,0.877-2.191,1.53-3.374,1.965c-2.012,0.744-3.711,0.791-5.08,0.116
		c-1.371-0.675-2.144-2.034-2.325-4.096c-0.273-3.08,0.782-6.424,3.111-9.956c2.332-3.523,5.504-6.774,9.52-9.597
		c4.017-2.823,8.432-4.947,13.286-6.279c4.553-1.249,8.152-1.248,10.85-0.186c2.694,1.07,4.272,3.027,4.714,5.779
		c0.301,1.883,0.097,3.659-0.628,5.332c-0.727,1.675-1.773,3.071-3.146,4.208c-1.373,1.137-2.933,1.996-4.674,2.597
		c0.919-0.126,1.936-0.035,3.054,0.276c1.122,0.308,2.205,0.788,3.254,1.433c1.049,0.644,1.979,1.511,2.783,2.591
		c0.809,1.081,1.321,2.244,1.531,3.481c0.326,1.929,0.326,3.71-0.014,5.335c-0.334,1.63-0.903,2.999-1.707,4.109
		c-0.802,1.119-1.809,2.107-3.014,2.973c-1.206,0.868-2.454,1.555-3.727,2.067c-1.281,0.508-2.615,0.918-4.008,1.232
		c-1.393,0.316-2.782,0.458-4.164,0.428c-1.38-0.031-2.512-0.11-3.402-0.255c-0.886-0.146-1.422-0.189-1.616-0.134
		c-0.47,0.128-1.493,0.789-3.078,2.008c-1.587,1.218-2.706,1.941-3.347,2.139c-0.708,0.226-1.097,0.076-1.164-0.438
		c-0.022-0.217,0.036-0.483,0.19-0.801c0.145-0.313,0.365-0.832,0.652-1.549c0.286-0.723,0.548-1.55,0.782-2.489
		c0.242-1.042,0.682-5.38,1.306-13.007C18.721,63.592,19.172,58.643,19.467,56.362z M34.505,69.107
		c-0.29-1.89-1.134-3.245-2.521-4.042c-1.392-0.795-2.989-0.965-4.804-0.488c-0.503,9.368-0.684,14.604-0.526,15.7
		c0.11,0.783,0.478,1.379,1.103,1.805c0.625,0.425,1.353,0.533,2.185,0.337c0.724-0.17,1.411-0.56,2.057-1.164
		c0.644-0.601,1.229-1.423,1.746-2.46c0.518-1.039,0.853-2.399,1.002-4.083C34.903,73.028,34.817,71.157,34.505,69.107z
		 M27.558,61.276c2.154-0.562,3.841-1.959,5.039-4.233c1.198-2.27,1.608-4.596,1.261-6.988c-0.187-1.285-0.614-2.282-1.284-2.986
		c-0.669-0.701-1.49-0.932-2.469-0.686c-0.431,0.629-0.862,2.179-1.296,4.654c-0.436,2.473-0.765,4.803-0.983,6.983
		C27.607,60.203,27.515,61.288,27.558,61.276z"/>
	<path fill="#603813" d="M61.764,76.881c0.359-0.023,0.699-0.067,1.023-0.125c0.324-0.063,0.644-0.161,0.953-0.294
		c0.313-0.131,0.583-0.239,0.82-0.323c0.235-0.087,0.495-0.231,0.777-0.445c0.281-0.213,0.495-0.362,0.646-0.451
		c0.147-0.089,0.358-0.265,0.631-0.53c0.271-0.258,0.433-0.415,0.498-0.471c0.06-0.055,0.229-0.223,0.507-0.507
		c0.126-0.14,0.252-0.279,0.377-0.417c0.494-0.541,0.882-0.81,1.169-0.818c0.227-0.003,0.431,0.07,0.603,0.222
		c0.181,0.154,0.292,0.334,0.334,0.547c0.108,0.52-0.162,1.247-0.821,2.18c-0.546,0.767-1.042,1.401-1.485,1.895
		c-0.441,0.495-1.079,1.067-1.915,1.717c-0.838,0.654-1.847,1.173-3.035,1.566c-1.188,0.395-2.52,0.646-3.998,0.764
		c-3.21,0.26-5.894-0.176-8.016-1.375c-2.125-1.195-3.437-3.212-3.94-6.103c-0.265-1.525-0.209-3.026,0.166-4.502
		c0.372-1.473,1.03-2.821,1.969-4.034c0.938-1.216,2.198-2.251,3.774-3.084c1.574-0.83,3.367-1.346,5.384-1.522
		c2.055-0.177,3.676,0.136,4.875,0.901c1.193,0.765,1.937,1.872,2.224,3.302c0.375,1.871-0.267,3.586-1.948,5.19
		c-1.684,1.603-4.069,2.637-7.152,3.182c0.221,1.148,0.826,2.048,1.825,2.702C59.003,76.705,60.258,76.976,61.764,76.881z
		 M55.687,70.695c1.62-0.495,2.895-1.368,3.82-2.646c0.928-1.275,1.297-2.351,1.126-3.239c-0.187-0.969-0.78-1.42-1.78-1.338
		c-1.005,0.085-1.861,0.868-2.577,2.35C55.556,67.305,55.358,68.933,55.687,70.695z"/>
	<path fill="#603813" d="M82.486,76.738c1.57,0.084,2.995-0.375,4.266-1.387c0.605-0.476,1.014-0.699,1.239-0.684
		c0.24,0.022,0.45,0.119,0.638,0.293c0.189,0.173,0.311,0.366,0.359,0.58c0.126,0.536-0.154,1.238-0.841,2.121
		c-1.83,2.354-4.453,3.411-7.849,3.278c-3.133-0.125-5.818-0.88-8.017-2.332c-2.198-1.453-3.601-3.625-4.207-6.583
		c-0.32-1.561-0.314-3.055,0.009-4.49c0.322-1.435,0.92-2.707,1.792-3.813c0.87-1.106,2.067-1.995,3.598-2.646
		c1.527-0.646,3.271-0.95,5.236-0.889c2.003,0.062,3.593,0.565,4.777,1.476c1.188,0.908,1.947,2.104,2.282,3.571
		c0.436,1.918-0.121,3.565-1.705,4.969c-1.578,1.412-3.866,2.166-6.866,2.351c0.238,1.115,0.883,2.071,1.921,2.878
		C80.161,76.242,81.284,76.677,82.486,76.738z M76.609,69.842c1.568-0.307,2.783-1.032,3.64-2.204
		c0.856-1.167,1.179-2.201,0.979-3.11c-0.223-0.996-0.816-1.516-1.795-1.551c-0.977-0.035-1.783,0.653-2.434,2.05
		C76.354,66.43,76.22,68.036,76.609,69.842z"/>
</g>
<g>
	<path fill="#603813" d="M90.637,74.15c1.795-0.157,3.175,0.367,4.172,1.616c1,1.251,1.398,3.106,1.163,5.537
		c-0.164,1.719-0.592,3.153-1.301,4.277c-0.708,1.129-1.531,1.684-2.467,1.677c-0.669-0.006-1.202-0.257-1.593-0.744
		c-0.391-0.493-0.534-1.138-0.432-1.945c0.076-0.596,0.255-1.128,0.533-1.595c0.281-0.464,0.563-0.815,0.848-1.054
		c0.284-0.239,0.566-0.575,0.834-1.012c0.271-0.435,0.434-0.936,0.502-1.502c0.078-0.68-0.057-1.201-0.406-1.554
		c-0.348-0.358-0.809-0.516-1.389-0.484c-1.526,0.089-3.106,1.144-4.787,3.056c-1.678,1.918-3.224,4.389-4.632,7.436
		c-1.405,3.05-2.439,6.239-3.04,9.715c-0.438,2.515-0.157,4.557,0.87,6.149c1.026,1.589,2.539,2.604,4.509,2.942
		c0.647,0.108,1.29,0.097,1.933-0.053c0.64-0.146,1.267-0.426,1.873-0.842c0.605-0.412,1.06-0.758,1.361-1.021
		c0.302-0.261,0.689-0.624,1.161-1.092c0.609-0.636,1.033-0.949,1.285-0.924c0.187,0.016,0.334,0.096,0.446,0.239
		c0.111,0.138,0.158,0.308,0.143,0.509c-0.035,0.361-0.263,0.977-0.686,1.839c-0.314,0.632-0.739,1.304-1.267,2.014
		c-0.525,0.709-1.216,1.462-2.071,2.246c-0.852,0.783-1.766,1.446-2.736,1.985c-0.968,0.536-2.077,0.92-3.321,1.126
		c-1.249,0.211-2.495,0.153-3.73-0.159c-3.448-0.876-5.955-2.751-7.472-5.299c-1.522-2.554-1.795-5.81-0.887-9.823
		c0.554-2.457,1.42-4.759,2.575-7.002c1.152-2.232,2.465-4.242,3.922-6.06c1.457-1.813,2.992-3.473,4.604-4.973
		c1.608-1.498,3.224-2.727,4.857-3.643C87.644,74.819,89.176,74.274,90.637,74.15z"/>
	<path fill="#603813" d="M112.886,111.64c-0.722,1.171-1.666,2.191-2.827,3.054c-1.172,0.862-2.522,1.264-4.047,1.205
		c-0.607-0.021-1.158-0.164-1.664-0.419c-0.509-0.259-0.904-0.564-1.188-0.919c-0.292-0.353-0.531-0.701-0.718-1.046
		c-0.19-0.351-0.326-0.644-0.401-0.878c-0.029-0.117-0.06-0.234-0.089-0.353c-0.073,0.082-0.19,0.19-0.343,0.341
		c-0.155,0.152-0.472,0.401-0.957,0.757c-0.482,0.353-0.982,0.663-1.498,0.921c-0.519,0.261-1.158,0.476-1.922,0.64
		c-0.768,0.166-1.521,0.196-2.266,0.111c-1.675-0.197-3.013-1.032-3.978-2.437c-0.968-1.409-1.329-3.238-1.097-5.495
		c0.161-1.568,0.519-3.023,1.076-4.394c0.548-1.372,1.282-2.615,2.191-3.753c0.908-1.133,2.059-2.029,3.442-2.693
		c1.391-0.662,2.934-0.993,4.643-0.981c0.772,0.009,1.44,0.107,2.009,0.308c0.562,0.196,1.009,0.398,1.332,0.607
		c0.325,0.208,0.587,0.31,0.78,0.31c0.258-0.002,0.919-0.211,1.974-0.644c1.054-0.432,1.778-0.661,2.183-0.673
		c0.496-0.017,0.745,0.308,0.735,0.971c-0.005,0.361-0.16,1.18-0.474,2.456c-0.31,1.278-0.626,2.777-0.957,4.507
		c-0.325,1.729-0.504,3.338-0.53,4.828c-0.01,0.806,0.154,1.457,0.504,1.951c0.346,0.498,0.771,0.746,1.276,0.743
		c0.415,0.003,0.754-0.102,1.011-0.313c0.258-0.202,0.599-0.563,1.01-1.085c0.34-0.435,0.63-0.657,0.873-0.661
		c0.221-0.005,0.399,0.089,0.541,0.296c0.14,0.198,0.208,0.405,0.211,0.62c-0.003,0.088-0.004,0.169-0.009,0.24
		c-0.007,0.079-0.023,0.152-0.039,0.229c-0.017,0.076-0.035,0.148-0.049,0.21c-0.019,0.068-0.048,0.142-0.089,0.227
		c-0.041,0.09-0.069,0.155-0.088,0.196c-0.021,0.047-0.056,0.125-0.119,0.229c-0.057,0.11-0.102,0.189-0.125,0.228
		c-0.025,0.048-0.076,0.138-0.151,0.278C112.974,111.502,112.921,111.596,112.886,111.64z M102.967,100.013
		c0.056-1.255-0.424-1.888-1.438-1.903c-0.67-0.009-1.304,0.341-1.905,1.047c-0.606,0.705-1.103,1.588-1.49,2.652
		c-0.388,1.063-0.709,2.136-0.954,3.218c-0.24,1.088-0.398,2.103-0.463,3.047c-0.059,0.861,0.047,1.583,0.323,2.165
		c0.271,0.583,0.7,0.9,1.272,0.947c0.522,0.04,1.045-0.186,1.566-0.681c0.519-0.498,0.974-1.209,1.361-2.133
		c0.368-0.839,0.733-2.13,1.097-3.88C102.701,102.746,102.908,101.251,102.967,100.013z"/>
	<path fill="#603813" d="M132.863,113.153c-1.063,1.031-2.356,1.639-3.86,1.815c-1.51,0.175-2.752-0.186-3.701-1.064
		c-0.951-0.88-1.464-2.062-1.546-3.528c-0.077-1.47,0.108-3.228,0.539-5.282c0.434-2.044,0.616-3.438,0.575-4.171
		c-0.032-0.542-0.171-0.977-0.398-1.316c-0.234-0.338-0.521-0.493-0.863-0.461c-0.474,0.044-0.971,0.42-1.501,1.138
		c-0.527,0.711-1.03,1.774-1.508,3.168c-0.422,1.268-0.845,3.053-1.276,5.35c-0.437,2.305-0.642,4.065-0.598,5.296
		c0.016,0.541-0.064,0.913-0.24,1.12c-0.183,0.198-0.481,0.312-0.906,0.33c-0.596,0.025-1.451,0.114-2.565,0.249
		c-1.112,0.134-1.777,0.193-1.987,0.198c-0.392,0.004-0.68-0.1-0.867-0.316c-0.186-0.216-0.279-0.59-0.282-1.129
		c-0.005-0.729,0.369-3.073,1.085-7.053c0.708-3.989,1.033-6.633,1.027-7.917c-0.003-0.391-0.063-0.766-0.177-1.122
		c-0.117-0.361-0.175-0.681-0.178-0.962c-0.004-0.707,0.552-1.315,1.651-1.841c1.099-0.523,2.376-0.835,3.851-0.938
		c1.119-0.08,1.703,0.446,1.75,1.593c0.01,0.322-0.006,0.741-0.049,1.241c-0.047,0.501-0.095,0.92-0.149,1.243
		c-0.035,0.178-0.068,0.354-0.101,0.533c0.58-1.065,1.505-2.176,2.746-3.349c1.242-1.172,2.483-1.827,3.759-1.962
		c2.508-0.254,3.88,0.981,4.131,3.748c0.093,1.029-0.003,2.601-0.303,4.722c-0.297,2.123-0.419,3.624-0.341,4.504
		c0.135,1.566,0.766,2.283,1.892,2.13c0.412-0.052,0.733-0.2,0.969-0.44c0.234-0.239,0.533-0.643,0.883-1.216
		c0.296-0.474,0.555-0.729,0.794-0.764c0.218-0.034,0.405,0.039,0.562,0.221c0.158,0.184,0.248,0.381,0.274,0.593
		c0.009,0.085,0.015,0.161,0.013,0.239c0,0.076-0.007,0.153-0.012,0.229c-0.013,0.078-0.018,0.146-0.027,0.218
		c-0.012,0.063-0.037,0.144-0.066,0.233c-0.03,0.092-0.056,0.159-0.067,0.208c-0.01,0.045-0.042,0.123-0.089,0.24
		c-0.049,0.114-0.082,0.194-0.103,0.244c-0.023,0.044-0.063,0.145-0.125,0.291c-0.061,0.149-0.107,0.249-0.134,0.301
		C134.748,110.977,133.925,112.123,132.863,113.153z"/>
	<path fill="#603813" d="M154.287,104.804c0.396-0.101,0.698-0.279,0.907-0.532c0.207-0.246,0.456-0.659,0.747-1.23
		c0.24-0.479,0.472-0.743,0.701-0.805c0.214-0.055,0.405-0.008,0.575,0.142c0.172,0.148,0.28,0.318,0.324,0.507
		c0.016,0.079,0.028,0.152,0.036,0.221c0.008,0.07,0.012,0.138,0.009,0.211c-0.005,0.076-0.005,0.143-0.009,0.202
		c0.003,0.064-0.015,0.142-0.036,0.229c-0.025,0.088-0.04,0.152-0.049,0.197c-0.009,0.041-0.029,0.117-0.067,0.231
		c-0.033,0.113-0.059,0.19-0.073,0.234c-0.016,0.049-0.05,0.143-0.097,0.293c-0.042,0.145-0.077,0.238-0.103,0.287
		c-0.461,1.238-1.153,2.412-2.098,3.515c-0.936,1.103-2.144,1.862-3.604,2.241c-0.595,0.157-1.162,0.187-1.703,0.097
		c-0.541-0.085-0.982-0.247-1.318-0.485c-0.346-0.239-0.637-0.488-0.886-0.747c-0.243-0.264-0.431-0.501-0.552-0.702
		c-0.051-0.096-0.102-0.192-0.151-0.286c-0.056,0.093-0.138,0.233-0.262,0.407c-0.122,0.173-0.371,0.492-0.754,0.95
		c-0.386,0.454-0.797,0.878-1.229,1.256c-0.437,0.384-1,0.765-1.688,1.143c-0.692,0.379-1.389,0.634-2.098,0.769
		c-1.851,0.354-3.358-0.05-4.49-1.198c-1.13-1.146-1.813-2.952-2.067-5.38c-0.385-3.741,0.216-7.003,1.686-9.767
		c1.481-2.768,3.508-4.319,6.165-4.733c0.752-0.117,1.473-0.108,2.166,0.018c0.693,0.129,1.204,0.291,1.524,0.489
		c0.157-4.788-0.009-8.352-0.41-10.769c-0.171-1-0.458-1.748-0.871-2.241c-0.408-0.495-0.862-0.718-1.356-0.66
		c-0.438,0.05-0.695-0.171-0.771-0.668c-0.112-0.726,0.293-1.54,1.19-2.427c0.896-0.891,1.928-1.381,3.111-1.493
		c1.139-0.105,2.115,0.233,2.957,0.998c0.834,0.769,1.414,1.895,1.725,3.39c0.297,1.461,0.435,3.646,0.37,6.611
		c-0.062,2.968-0.123,6.084-0.183,9.356c-0.062,3.271,0.092,5.978,0.505,8.064c0.146,0.757,0.437,1.324,0.864,1.696
		C153.353,104.807,153.812,104.929,154.287,104.804z M145.354,96.291c-0.092-0.568-0.303-1.002-0.622-1.28
		c-0.32-0.285-0.733-0.382-1.24-0.3c-0.652,0.111-1.174,0.592-1.585,1.449c-0.407,0.858-0.674,1.892-0.81,3.104
		c-0.132,1.207-0.193,2.409-0.193,3.601c0.004,1.19,0.067,2.268,0.199,3.234c0.241,1.754,0.915,2.532,2.013,2.313
		c0.51-0.1,0.964-0.465,1.363-1.092c0.398-0.624,0.683-1.455,0.862-2.492c0.18-0.91,0.278-2.265,0.293-4.055
		C145.644,98.976,145.548,97.484,145.354,96.291z"/>
	<path fill="#603813" d="M155.777,93.916c-0.077-0.352-0.208-0.677-0.387-0.979c-0.185-0.308-0.303-0.587-0.36-0.843
		c-0.136-0.639,0.275-1.275,1.225-1.902c0.954-0.625,2.114-1.071,3.5-1.358c1.069-0.223,1.725,0.15,1.984,1.123
		c0.194,0.737,0.335,2.361,0.405,4.904c0.067,2.551,0.25,4.476,0.574,5.73c0.13,0.499,0.361,0.878,0.689,1.133
		c0.326,0.256,0.69,0.325,1.076,0.2c0.534-0.171,1.024-0.575,1.467-1.204c0.44-0.634,0.769-1.334,0.979-2.096
		c0.227-0.884,0.264-2.03,0.109-3.438c-0.15-1.407-0.396-2.671-0.73-3.797c-0.092-0.317-0.237-0.611-0.432-0.886
		c-0.198-0.271-0.328-0.523-0.394-0.757c-0.169-0.585,0.21-1.188,1.119-1.802c0.915-0.612,2.052-1.067,3.413-1.382
		c1.045-0.243,1.715,0.068,2.015,0.931c0.097,0.278,0.176,0.621,0.232,1.023c0.055,0.404,0.113,0.889,0.17,1.458
		c0.053,0.569,0.189,1.581,0.402,3.051c0.216,1.471,0.486,3.184,0.818,5.135c0.743,4.42,1.146,7.688,1.226,9.733
		c0.231,5.793-1.111,10.263-4.061,13.114c-0.941,0.908-2.066,1.66-3.354,2.229c-2.068,0.918-3.985,1.06-5.702,0.414
		c-1.721-0.648-2.791-2.023-3.237-4.034c-0.249-1.102-0.282-2.181-0.126-3.222c0.155-1.039,0.437-1.887,0.836-2.559
		c0.398-0.663,0.803-1.204,1.22-1.621c0.411-0.416,0.786-0.676,1.124-0.793c0.387-0.134,0.625-0.034,0.707,0.307
		c0.032,0.129,0.02,0.43-0.041,0.885c-0.06,0.46-0.036,0.936,0.09,1.429c0.202,0.826,0.637,1.384,1.312,1.66
		c0.671,0.281,1.466,0.239,2.376-0.126c0.616-0.241,1.143-0.635,1.584-1.17c0.437-0.526,0.768-1.166,0.974-1.91
		c0.213-0.745,0.366-1.516,0.471-2.319c0.101-0.801,0.125-1.716,0.071-2.736c-0.054-1.013-0.123-1.951-0.218-2.802
		c-0.09-0.855-0.211-1.809-0.362-2.86c-1.414,2.872-3.669,4.934-6.708,5.928c-1.267,0.411-2.42,0.322-3.444-0.287
		c-1.029-0.607-1.686-1.583-1.973-2.903c-0.32-1.473-0.467-3.486-0.458-6.003C155.969,95.998,155.9,94.479,155.777,93.916z"/>
</g>
<g>
	<path fill="#FFFFFF" d="M120.612,63.965c0,3.731-3.028,6.763-6.761,6.763c-3.736,0-6.763-3.031-6.763-6.763
		c0-3.732,3.026-6.76,6.763-6.76C117.584,57.205,120.612,60.232,120.612,63.965z"/>
	<path fill="#FFFFFF" d="M130.625,69.512c-0.64-5.125-7.684-3.767-10.79-3.493c-0.312,0.028-2.379-0.063-2.441,0.173
		c-0.179-0.103-0.362-0.196-0.551-0.293c0.029-0.144,0.023-0.299-0.089-0.452c-0.767-1.103-1.633-1.354-2.359-1.085
		c-0.044-0.076-0.101-0.133-0.141-0.211c-0.077-0.158-0.194-0.255-0.327-0.316c-0.058-0.166-0.163-0.373-0.328-0.382
		c-3.824-0.226-4.607-9.737-8.364-11.019c-0.073-0.022-0.15-0.027-0.224-0.047c-0.1-0.029-0.198-0.052-0.302-0.065
		c-1.97-0.36-4.537,0.716-4.516,2.967c0.029,3.503,2.613,5.637,5.543,7.064c1.478,0.722,3.014,1.295,4.536,1.906
		c0.007,0.097,0.033,0.193,0.097,0.298c0.313,0.396,0.564,0.842,0.81,1.286c0.121,0.236,0.496,0.354,0.737,0.251
		c0.131-0.056,0.234-0.12,0.345-0.185c-0.081,0.17-0.152,0.357-0.217,0.578c-0.123,0.438,0.354,0.846,0.772,0.739
		c0.003,0.129,0.008,0.259,0.023,0.394c0.044,0.401,0.438,0.719,0.847,0.569c0.616-0.225,0.979-0.558,1.159-0.92
		c0.861,0.351,4.361,2.581,4.985,3.213c2.297,2.341,7.465,3.648,9.721,1.577c0.026,0.006,0.056,0.012,0.081,0.018
		c0.393,0.068,0.818-0.251,0.766-0.674c-0.017-0.15-0.066-0.275-0.102-0.413C130.592,70.315,130.759,70.576,130.625,69.512z"/>
	<g>
		<path fill="#C69C6D" d="M116.846,55.781c-6.374,0-5.682,9.591,0.628,9.591C123.85,65.372,123.157,55.781,116.846,55.781z"/>
		<path fill="#C69C6D" d="M114.623,70.307c-2.054,2.832-5,4.244-6.579,3.154c-1.581-1.087-1.197-4.267,0.852-7.098
			c2.055-2.835,5.002-4.248,6.581-3.16C117.058,64.294,116.675,67.474,114.623,70.307z"/>
		<path fill="#C69C6D" d="M111.074,61.182c-0.887-3.293-4.576-12.221-9.35-8.58c-5.497,4.188,2.658,10.163,6.838,10.924
			c0.482,0.088,0.625-0.639,0.144-0.726c-3.953-0.72-11.696-6.411-5.943-10.015c3.735-2.338,6.974,6.327,7.596,8.646
			c0.038,0.14,0.132,0.209,0.234,0.233c0.06,0.112,0.174,0.205,0.337,0.205C111.349,61.87,111.37,61.344,111.074,61.182z"/>
		<path fill="#C69C6D" d="M110.086,62.771c-1.359-1.515-2.708-3.034-3.98-4.618c-0.297-0.373-0.928,0.037-0.628,0.414
			c1.272,1.584,2.62,3.104,3.98,4.616C109.774,63.537,110.407,63.129,110.086,62.771z"/>
		<path fill="#C69C6D" d="M118.813,50.652c-0.592-0.59-2.431-1.579-3.082-0.545c-0.408,0.652-0.007,1.598,0.572,2.02
			c0.847,0.619,1.58-0.133,1.981-0.855c0.229,0.21,0.4,0.395,0.452,0.469c0.713,1.102,0.279,2.761,0.135,3.962
			c-0.058,0.469,0.685,0.614,0.743,0.142C119.834,54.053,120.232,52.08,118.813,50.652z M116.654,51.451
			c-0.226-0.197-0.469-0.736-0.242-1.002c0.242-0.283,0.782-0.023,1.279,0.337C117.494,51.225,117.142,51.875,116.654,51.451z"/>
		<path fill="#C69C6D" d="M118.935,65.767c3.429-0.646,13.28-1.271,11.982,4.499c-1.492,6.646-10.546,2.067-13.059-1.277
			c-0.292-0.386,0.316-0.826,0.606-0.442c2.379,3.163,10.993,7.505,11.832,0.884c0.544-4.294-8.866-3.385-11.283-2.927
			c-0.146,0.026-0.249-0.024-0.316-0.104c-0.131-0.005-0.263-0.064-0.338-0.21C118.183,65.822,118.656,65.576,118.935,65.767z"/>
		<path fill="#C69C6D" d="M117.896,67.323c1.985,0.536,3.974,1.063,5.993,1.496c0.471,0.102,0.365,0.833-0.11,0.728
			c-2.017-0.428-4.005-0.956-5.991-1.493C117.32,67.928,117.424,67.196,117.896,67.323z"/>
		<path fill="#C69C6D" d="M121.281,57.178c-0.412,0.255,0.044,0.846,0.453,0.593c1.048-0.648,2.394-1.748,3.722-1.6
			c0.089,0.012,0.333,0.083,0.628,0.193c-0.495,0.671-0.874,1.636,0.068,2.114c0.642,0.324,1.689,0.267,2.114-0.374
			c0.672-1.02-1.036-2.207-1.837-2.468C124.495,55.004,122.843,56.211,121.281,57.178z M126.789,56.675
			c0.551,0.284,1.023,0.646,0.864,0.979c-0.146,0.313-0.75,0.337-1.029,0.223C126.022,57.634,126.471,57.039,126.789,56.675z"/>
	</g>
</g>
</svg>
