<?xml version="1.0" encoding="utf-8"?>
<!-- Generator: Adobe Illustrator 16.0.3, SVG Export Plug-In . SVG Version: 6.00 Build 0)  -->
<!DOCTYPE svg PUBLIC "-//W3C//DTD SVG 1.1//EN" "http://www.w3.org/Graphics/SVG/1.1/DTD/svg11.dtd" [
	<!ENTITY ns_extend "http://ns.adobe.com/Extensibility/1.0/">
	<!ENTITY ns_ai "http://ns.adobe.com/AdobeIllustrator/10.0/">
	<!ENTITY ns_graphs "http://ns.adobe.com/Graphs/1.0/">
	<!ENTITY ns_vars "http://ns.adobe.com/Variables/1.0/">
	<!ENTITY ns_imrep "http://ns.adobe.com/ImageReplacement/1.0/">
	<!ENTITY ns_sfw "http://ns.adobe.com/SaveForWeb/1.0/">
	<!ENTITY ns_custom "http://ns.adobe.com/GenericCustomNamespace/1.0/">
	<!ENTITY ns_adobe_xpath "http://ns.adobe.com/XPath/1.0/">
]>
<svg version="1.1"
	 id="svg864" xmlns:x="&ns_extend;" xmlns:i="&ns_ai;" xmlns:graph="&ns_graphs;" inkscape:version="0.92.4 (5da689c313, 2019-01-14)" sodipodi:docname="search.svg" xmlns:dc="http://purl.org/dc/elements/1.1/" xmlns:cc="http://creativecommons.org/ns#" xmlns:rdf="http://www.w3.org/1999/02/22-rdf-syntax-ns#" xmlns:svg="http://www.w3.org/2000/svg" xmlns:inkscape="http://www.inkscape.org/namespaces/inkscape" xmlns:sodipodi="http://sodipodi.sourceforge.net/DTD/sodipodi-0.dtd"
	 xmlns="http://www.w3.org/2000/svg" xmlns:xlink="http://www.w3.org/1999/xlink" x="0px" y="0px" width="30px" height="30px"
	 viewBox="0 0 30 30" enable-background="new 0 0 30 30" xml:space="preserve">
<metadata  id="metadata861">
	<rdf:RDF>
		<cc:Work  rdf:about="">
			<dc:format>image/svg+xml</dc:format>
			<dc:type  rdf:resource="http://purl.org/dc/dcmitype/StillImage"></dc:type>
			<dc:title></dc:title>
		</cc:Work>
	</rdf:RDF>
	<sfw  xmlns="&ns_sfw;">
		<slices></slices>
		<sliceSourceBounds  height="29.806" width="27.085" y="369.597" x="498.665" bottomLeftOrigin="true"></sliceSourceBounds>
	</sfw>
</metadata>
<sodipodi:namedview  units="px" id="base" inkscape:window-y="-8" inkscape:window-x="-8" inkscape:window-height="705" inkscape:window-width="1366" inkscape:current-layer="layer1" inkscape:document-units="mm" inkscape:pageshadow="2" inkscape:pageopacity="0.0" inkscape:window-maximized="1" inkscape:cy="78.393012" inkscape:cx="121.23511" inkscape:zoom="0.7" borderopacity="1.0" bordercolor="#666666" showgrid="false" pagecolor="#ffffff">
	</sodipodi:namedview>
<path fill="#C69C6D" d="M29.25,11.264c0,6.168-5,11.167-11.167,11.167c-6.167,0-11.167-4.999-11.167-11.167
	c0-6.167,5-11.167,11.167-11.167C24.25,0.097,29.25,5.096,29.25,11.264z M18.082,3.18C13.618,3.18,10,6.799,10,11.264
	c0,4.465,3.618,8.084,8.083,8.084c4.466,0,8.085-3.619,8.085-8.084C26.167,6.799,22.548,3.18,18.082,3.18z"/>
<path fill="#C69C6D" d="M5.907,28.77c-0.865,1.107-2.257,1.464-3.109,0.799l0,0c-0.852-0.666-0.842-2.104,0.023-3.21l5.934-7.594
	c0.865-1.107,2.257-1.465,3.11-0.8l0,0c0.852,0.666,0.841,2.104-0.024,3.211L5.907,28.77z"/>
</svg>
