<?xml version="1.0" encoding="utf-8"?>
<!-- Generator: Adobe Illustrator 16.0.3, SVG Export Plug-In . SVG Version: 6.00 Build 0)  -->
<!DOCTYPE svg PUBLIC "-//W3C//DTD SVG 1.1//EN" "http://www.w3.org/Graphics/SVG/1.1/DTD/svg11.dtd" [
	<!ENTITY ns_extend "http://ns.adobe.com/Extensibility/1.0/">
	<!ENTITY ns_ai "http://ns.adobe.com/AdobeIllustrator/10.0/">
	<!ENTITY ns_graphs "http://ns.adobe.com/Graphs/1.0/">
	<!ENTITY ns_vars "http://ns.adobe.com/Variables/1.0/">
	<!ENTITY ns_imrep "http://ns.adobe.com/ImageReplacement/1.0/">
	<!ENTITY ns_sfw "http://ns.adobe.com/SaveForWeb/1.0/">
	<!ENTITY ns_custom "http://ns.adobe.com/GenericCustomNamespace/1.0/">
	<!ENTITY ns_adobe_xpath "http://ns.adobe.com/XPath/1.0/">
]>
<svg version="1.1"
	 id="svg864" xmlns:x="&ns_extend;" xmlns:i="&ns_ai;" xmlns:graph="&ns_graphs;" xmlns:dc="http://purl.org/dc/elements/1.1/" xmlns:cc="http://creativecommons.org/ns#" xmlns:rdf="http://www.w3.org/1999/02/22-rdf-syntax-ns#" xmlns:svg="http://www.w3.org/2000/svg" xmlns:sodipodi="http://sodipodi.sourceforge.net/DTD/sodipodi-0.dtd" xmlns:inkscape="http://www.inkscape.org/namespaces/inkscape" sodipodi:docname="twitter.svg" inkscape:version="0.92.4 (5da689c313, 2019-01-14)"
	 xmlns="http://www.w3.org/2000/svg" xmlns:xlink="http://www.w3.org/1999/xlink" x="0px" y="0px" width="30px" height="30px"
	 viewBox="0 0 30 30" enable-background="new 0 0 30 30" xml:space="preserve">
<metadata  id="metadata861">
	<rdf:RDF>
		<cc:Work  rdf:about="">
			<dc:format>image/svg+xml</dc:format>
			<dc:type  rdf:resource="http://purl.org/dc/dcmitype/StillImage"></dc:type>
			<dc:title></dc:title>
		</cc:Work>
	</rdf:RDF>
	<sfw  xmlns="&ns_sfw;">
		<slices></slices>
		<sliceSourceBounds  height="23.419" width="28.04" x="498.46" y="371.26" bottomLeftOrigin="true"></sliceSourceBounds>
	</sfw>
</metadata>
<sodipodi:namedview  units="px" id="base" inkscape:cy="-4.7113483" inkscape:cx="71.041566" inkscape:zoom="1.979899" borderopacity="1.0" showgrid="false" bordercolor="#666666" pagecolor="#ffffff" inkscape:window-maximized="1" inkscape:window-y="-8" inkscape:window-x="-8" inkscape:window-height="705" inkscape:window-width="1366" inkscape:current-layer="layer1" inkscape:document-units="mm" inkscape:pageshadow="2" inkscape:pageopacity="0.0">
	</sodipodi:namedview>
<path fill="#603813" d="M1.96,25.659c3.03,0.146,5.657-0.611,7.94-2.3c-1.098-0.508-2.247-0.838-3.137-1.51
	c-0.856-0.646-1.445-1.647-2.295-2.664c1.058-0.059,1.751-0.096,2.444-0.134c-2.573-1.151-4.103-2.934-4.28-5.83
	c0.828,0.217,1.572,0.411,2.535,0.663C2.529,10.919,2.012,8.316,3.52,6.047c3.169,3.592,7.083,5.694,11.92,6.023
	c0.087-0.962,0.057-1.885,0.272-2.745c1.042-4.163,5.826-5.876,9.216-3.264c0.735,0.566,1.322,0.606,2.074,0.302
	c0.74-0.299,1.482-0.591,2.436-0.734c-0.713,0.945-1.426,1.89-2.174,2.88c0.865-0.219,1.734-0.439,2.604-0.66
	C29.911,7.902,29.955,7.955,30,8.008c-0.645,0.668-1.234,1.402-1.949,1.984c-0.572,0.468-0.757,0.955-0.771,1.676
	c-0.143,7.718-5.203,14.208-12.593,16.046c-4.253,1.058-8.359,0.513-12.24-1.565c-0.097-0.051-0.194-0.105-0.279-0.174
	C2.118,25.936,2.093,25.864,1.96,25.659z"/>
</svg>
