<?xml version="1.0" encoding="utf-8"?>
<!-- Generator: Adobe Illustrator 16.0.3, SVG Export Plug-In . SVG Version: 6.00 Build 0)  -->
<!DOCTYPE svg PUBLIC "-//W3C//DTD SVG 1.1//EN" "http://www.w3.org/Graphics/SVG/1.1/DTD/svg11.dtd" [
	<!ENTITY ns_extend "http://ns.adobe.com/Extensibility/1.0/">
	<!ENTITY ns_ai "http://ns.adobe.com/AdobeIllustrator/10.0/">
	<!ENTITY ns_graphs "http://ns.adobe.com/Graphs/1.0/">
	<!ENTITY ns_vars "http://ns.adobe.com/Variables/1.0/">
	<!ENTITY ns_imrep "http://ns.adobe.com/ImageReplacement/1.0/">
	<!ENTITY ns_sfw "http://ns.adobe.com/SaveForWeb/1.0/">
	<!ENTITY ns_custom "http://ns.adobe.com/GenericCustomNamespace/1.0/">
	<!ENTITY ns_adobe_xpath "http://ns.adobe.com/XPath/1.0/">
]>
<svg version="1.1"
	 id="svg864" xmlns:x="&ns_extend;" xmlns:i="&ns_ai;" xmlns:graph="&ns_graphs;" xmlns:dc="http://purl.org/dc/elements/1.1/" xmlns:cc="http://creativecommons.org/ns#" xmlns:rdf="http://www.w3.org/1999/02/22-rdf-syntax-ns#" xmlns:svg="http://www.w3.org/2000/svg" xmlns:sodipodi="http://sodipodi.sourceforge.net/DTD/sodipodi-0.dtd" xmlns:inkscape="http://www.inkscape.org/namespaces/inkscape" sodipodi:docname="youtube.svg" inkscape:version="0.92.4 (5da689c313, 2019-01-14)"
	 xmlns="http://www.w3.org/2000/svg" xmlns:xlink="http://www.w3.org/1999/xlink" x="0px" y="0px" width="30px" height="30px"
	 viewBox="0 0 30 30" enable-background="new 0 0 30 30" xml:space="preserve">
<metadata  id="metadata861">
	<rdf:RDF>
		<cc:Work  rdf:about="">
			<dc:format>image/svg+xml</dc:format>
			<dc:type  rdf:resource="http://purl.org/dc/dcmitype/StillImage"></dc:type>
			<dc:title></dc:title>
		</cc:Work>
	</rdf:RDF>
	<sfw  xmlns="&ns_sfw;">
		<slices></slices>
		<sliceSourceBounds  height="23.963" width="25.271" x="499.208" y="372.073" bottomLeftOrigin="true"></sliceSourceBounds>
	</sfw>
</metadata>
<sodipodi:namedview  units="px" id="base" inkscape:cy="-4.7113483" inkscape:cx="71.041566" inkscape:zoom="1.979899" borderopacity="1.0" showgrid="false" bordercolor="#666666" pagecolor="#ffffff" inkscape:window-maximized="1" inkscape:window-y="-8" inkscape:window-x="-8" inkscape:window-height="705" inkscape:window-width="1366" inkscape:current-layer="layer1" inkscape:document-units="mm" inkscape:pageshadow="2" inkscape:pageopacity="0.0">
	</sodipodi:namedview>
<g>
	<path fill="#603813" d="M2.708,18.652c0.36-0.766,0.613-1.608,1.105-2.276c0.785-1.063,1.964-1.537,3.282-1.539
		c5.498-0.013,10.997-0.021,16.495,0.004c2.189,0.012,3.873,1.474,4.301,3.614c0.014,0.068,0.059,0.133,0.088,0.197
		c0,1.646,0,3.296,0,4.94c-0.028,0.068-0.071,0.132-0.084,0.201c-0.429,2.188-2.125,3.626-4.332,3.629
		c-5.498,0.009-10.998,0.002-16.495,0.002c-1.117,0.002-2.074-0.395-2.909-1.123c-0.826-0.722-1.209-1.675-1.451-2.709
		C2.708,21.948,2.708,20.299,2.708,18.652z M17.104,25.063c0.304,0.197,0.537,0.391,0.801,0.515c0.84,0.399,1.669-0.028,1.699-0.946
		c0.051-1.607,0.049-3.216-0.004-4.822c-0.029-0.865-0.805-1.278-1.619-0.934c-0.297,0.127-0.564,0.326-0.904,0.527
		c0-0.978,0-1.902,0-2.85c-0.508,0-0.965,0-1.441,0c0,3.027,0,6.025,0,9.039c0.5,0,0.963,0,1.43,0
		C17.076,25.419,17.087,25.271,17.104,25.063z M13.979,25.602c0-2.272,0-4.488,0-6.711c-0.508,0-0.979,0-1.483,0
		c0,1.713-0.015,3.373,0.01,5.035c0.007,0.477-0.229,0.656-0.62,0.674c-0.437,0.019-0.422-0.334-0.422-0.639
		c-0.002-1.496-0.001-2.992-0.001-4.488c0-0.197,0-0.396,0-0.6c-0.537,0-0.996,0-1.481,0c0,1.92,0.011,3.807-0.004,5.688
		c-0.009,1.08,1.053,1.373,1.747,1.01c0.214-0.113,0.407-0.262,0.614-0.389c0.04-0.022,0.098-0.02,0.164-0.029
		c0.059,0.164,0.111,0.313,0.159,0.449C13.112,25.602,13.521,25.602,13.979,25.602z M25.227,23.282c-0.513,0-0.973,0-1.511,0
		c0,0.304,0.065,0.602-0.021,0.847c-0.068,0.193-0.324,0.444-0.497,0.444c-0.169,0-0.46-0.271-0.483-0.449
		c-0.064-0.526-0.021-1.069-0.021-1.687c0.869,0,1.697,0,2.539,0c0-0.768,0.035-1.459-0.008-2.146
		c-0.048-0.757-0.479-1.286-1.219-1.414c-0.537-0.094-1.115-0.08-1.652,0.013c-0.65,0.11-1.086,0.586-1.11,1.242
		c-0.054,1.378-0.074,2.766,0.01,4.139c0.024,0.396,0.371,0.896,0.718,1.119c0.811,0.518,1.729,0.479,2.549-0.021
		C25.273,24.907,25.322,24.131,25.227,23.282z M9.671,16.563c-1.57,0-3.073,0-4.579,0c0,0.393,0,0.74,0,1.157
		c0.478,0,0.934,0,1.462,0c0,2.669,0,5.272,0,7.858c0.569,0,1.064,0,1.615,0c0-2.627,0-5.219,0-7.872c0.532,0,1.007,0,1.501,0
		C9.671,17.29,9.671,16.941,9.671,16.563z"/>
	<path fill="#603813" d="M23.311,13.458c-0.516,0-0.961,0-1.438,0c-0.048-0.182-0.095-0.355-0.157-0.595
		c-0.257,0.164-0.475,0.319-0.708,0.452c-1.045,0.596-2.022,0.122-2.055-1.058c-0.054-1.962-0.028-3.926-0.032-5.89
		c0-0.091,0.02-0.181,0.032-0.31c0.528,0,1.039,0,1.601,0c0,1.499,0,2.972,0,4.445c0,0.43,0.004,0.86,0.006,1.29
		c0,0.307,0.062,0.599,0.446,0.563c0.349-0.033,0.716-0.093,0.711-0.597c-0.009-1.347-0.003-2.693-0.003-4.039
		c0-0.54,0-1.081,0-1.662c0.551,0,1.063,0,1.598,0C23.311,8.533,23.311,10.972,23.311,13.458z"/>
	<path fill="#603813" d="M10.66,13.458c-0.603,0-1.124,0-1.739,0c0-0.503-0.036-1.003,0.006-1.497
		c0.157-1.845-0.198-3.592-0.876-5.303c-0.404-1.019-0.7-2.081-1.057-3.16c0.651,0,1.245,0,1.872,0
		C9.175,4.715,9.48,5.92,9.813,7.239c0.297-1.158,0.588-2.199,0.82-3.254c0.092-0.421,0.277-0.549,0.682-0.516
		c0.407,0.032,0.819,0.007,1.282,0.007c-0.552,1.66-1.114,3.259-1.606,4.88c-0.192,0.63-0.284,1.305-0.317,1.965
		C10.622,11.345,10.66,12.372,10.66,13.458z"/>
	<path fill="#603813" d="M17.177,9.736c0,0.635,0.029,1.272-0.007,1.904c-0.068,1.184-0.619,1.774-1.8,1.877
		c-0.472,0.041-0.971-0.013-1.431-0.128c-0.655-0.165-1.098-0.651-1.12-1.318c-0.052-1.545-0.058-3.094,0-4.639
		c0.026-0.71,0.503-1.22,1.214-1.359c0.521-0.101,1.08-0.142,1.604-0.069c0.937,0.13,1.403,0.697,1.524,1.66
		c0.012,0.093,0.022,0.186,0.022,0.279c0.002,0.598,0,1.196,0,1.792C17.182,9.736,17.18,9.736,17.177,9.736z M14.359,9.674
		c0.001,0,0.002,0,0.003,0c0,0.672-0.008,1.345,0.003,2.018c0.006,0.373,0.141,0.667,0.581,0.672
		c0.433,0.005,0.602-0.268,0.604-0.648c0.013-1.308,0.011-2.617,0.007-3.925c-0.002-0.382-0.167-0.667-0.587-0.674
		c-0.463-0.009-0.602,0.31-0.607,0.707C14.353,8.44,14.359,9.057,14.359,9.674z"/>
	<path fill="#603813" d="M18.122,22.227c-0.001,0.617,0.001,1.234-0.003,1.853c-0.001,0.282-0.059,0.565-0.42,0.521
		c-0.305-0.041-0.626-0.105-0.622-0.556c0.016-1.196,0.015-2.396,0-3.591c-0.004-0.436,0.274-0.533,0.604-0.571
		c0.42-0.049,0.437,0.257,0.438,0.55C18.125,21.029,18.122,21.628,18.122,22.227z"/>
	<path fill="#603813" d="M23.73,21.441c-0.381,0-0.686,0-1.047,0c0-0.375-0.004-0.725,0.002-1.07
		c0.004-0.346,0.193-0.499,0.531-0.497c0.348,0.001,0.51,0.185,0.514,0.519C23.732,20.725,23.73,21.059,23.73,21.441z"/>
</g>
</svg>
